<svg width="157" height="40" viewBox="0 0 157 40" fill="none" xmlns="http://www.w3.org/2000/svg">
<g clip-path="url(#clip0_6862_141839)">
<path d="M23.8494 17.8512C23.6888 17.9457 23.4338 17.9362 23.2779 17.8418L22.3476 17.2893C22.272 17.242 22.2012 17.1665 22.1492 17.0767C22.1445 17.072 22.1445 17.0673 22.1398 17.0626C22.0784 16.9681 22.0454 16.8642 22.0454 16.7698L22.0217 15.6883C22.017 15.5041 22.1351 15.2822 22.2956 15.1877L33.4598 8.68477L17.7951 0.141677C17.6203 0.0472255 17.3936 0 17.167 0C16.9403 0 16.7089 0.0472255 16.5389 0.141677L0.869437 8.68005L18.4232 18.8996C18.5837 18.9894 18.7112 19.2019 18.7112 19.3908V34.2999C18.7112 34.4888 18.579 34.7013 18.4137 34.791L17.4692 35.3152C17.3889 35.3577 17.2897 35.3813 17.1858 35.3813C17.1811 35.3813 17.1717 35.3813 17.167 35.3813C17.0536 35.3861 16.9497 35.3625 16.8647 35.3152L15.9155 34.7863C15.7549 34.7013 15.6227 34.4841 15.6227 34.2952V21.0059C15.6132 20.9067 15.5424 20.7887 15.4668 20.7462L0.000488281 11.745V29.379C0.000488281 29.7757 0.279119 30.2621 0.619142 30.4604L16.5483 39.8536C16.7183 39.9528 16.945 40.0047 17.167 40C17.3889 40 17.6156 39.9528 17.7856 39.8536L33.7148 30.4604C34.0548 30.2574 34.3334 29.7757 34.3334 29.379V11.745L23.8494 17.8512Z" fill="url(#paint0_linear_6862_141839)"/>
<path d="M56.7323 16.0755C55.5091 15.3341 54.2812 15.0129 52.6378 15.0129C48.2505 15.0129 45.0581 18.0118 45.0581 22.5596C45.0581 27.0743 48.0286 30.0448 52.6709 30.0448C54.1537 30.0448 55.5752 29.752 56.8645 28.9822V25.3364C55.7688 26.177 54.574 26.6257 53.2187 26.6257C50.6071 26.6257 48.9589 24.9492 48.9589 22.4982C48.9589 19.9197 50.6685 18.4368 53.0581 18.4368C54.3804 18.4368 55.5422 18.791 56.7323 19.7591V16.0755Z" fill="#3C3C3B"/>
<path d="M80.4348 26.4227H80.4207C79.0086 26.3046 78.2766 25.4829 78.2766 24.0142V8.7981H74.4136V24.2644C74.4136 28.4817 76.7748 29.8607 80.4348 29.8796V26.4227Z" fill="#3C3C3B"/>
<path d="M65.3889 15.0129C61.0961 15.0129 57.8706 18.0448 57.8706 22.5265C57.8706 27.0082 61.0961 30.0448 65.3889 30.0448C69.677 30.0448 72.9355 27.0129 72.9355 22.5265C72.9355 18.0448 69.677 15.0129 65.3889 15.0129ZM65.3889 26.6918C63.2921 26.6918 61.7762 25.1098 61.7762 22.5312C61.7762 19.9527 63.2921 18.3707 65.3889 18.3707C67.4857 18.3707 69.0017 19.9527 69.0017 22.5312C69.0017 25.1098 67.4857 26.6918 65.3889 26.6918Z" fill="#3C3C3B"/>
<path d="M88.5009 28.7225C89.6627 29.464 91.4336 29.8843 93.1763 29.8843C96.5293 29.8843 98.8858 28.4628 98.8858 25.3365C98.8858 22.758 97.6296 21.3365 93.9177 20.6564C92.5623 20.3353 92.0476 19.948 92.0476 19.2066C92.0476 18.5313 92.5954 17.9835 93.8846 17.9835C95.3675 17.9835 96.6237 18.4652 97.9791 19.3719V15.915C96.7229 15.2066 95.462 14.8524 93.7524 14.8524C90.6591 14.8524 88.2695 16.3022 88.2695 19.4663C88.2695 22.0779 89.6249 23.3672 92.8787 23.9528C94.4608 24.2739 95.0747 24.6281 95.0747 25.5018C95.0747 26.4038 94.2672 26.758 93.0771 26.758C91.6556 26.758 89.8516 26.144 88.4962 25.1476V28.7225H88.5009Z" fill="#3C3C3B"/>
<path d="M82.2246 29.7237H86.1065V28.4864V15.301H82.2246V29.7237Z" fill="#3C3C3B"/>
<path d="M84.1656 9.54895C83.0936 9.54895 82.2246 10.4179 82.2246 11.4899C82.2246 12.5619 83.0936 13.4309 84.1656 13.4309C85.2376 13.4309 86.1065 12.5619 86.1065 11.4899C86.1065 10.4132 85.2376 9.54895 84.1656 9.54895Z" fill="#3C3C3B"/>
<path d="M148.935 15.0129C144.647 15.0129 141.417 18.0448 141.417 22.5265C141.417 27.0082 144.642 30.0448 148.935 30.0448C153.223 30.0448 156.482 27.0129 156.482 22.5265C156.482 18.0448 153.223 15.0129 148.935 15.0129ZM148.935 26.6918C146.838 26.6918 145.323 25.1098 145.323 22.5312C145.323 19.9527 146.838 18.3707 148.935 18.3707C151.032 18.3707 152.548 19.9527 152.548 22.5312C152.548 25.1098 151.032 26.6918 148.935 26.6918Z" fill="#3C3C3B"/>
<path d="M100.185 28.7225C101.346 29.464 103.117 29.8843 104.86 29.8843C108.218 29.8843 110.57 28.4628 110.57 25.3365C110.57 22.758 109.313 21.3365 105.601 20.6564C104.246 20.3353 103.731 19.948 103.731 19.2066C103.731 18.5313 104.279 17.9835 105.573 17.9835C107.056 17.9835 108.312 18.4652 109.668 19.3719V15.915C108.411 15.2066 107.15 14.8524 105.441 14.8524C102.348 14.8524 99.958 16.3022 99.958 19.4663C99.958 22.0779 101.313 23.3672 104.567 23.9528C106.149 24.2739 106.763 24.6281 106.763 25.5018C106.763 26.4038 105.956 26.758 104.766 26.758C103.344 26.758 101.54 26.144 100.185 25.1476V28.7225Z" fill="#3C3C3B"/>
<path d="M112.232 29.7237H116.114V28.4864V15.301H112.232V29.7237Z" fill="#3C3C3B"/>
<path d="M114.173 9.54895C113.101 9.54895 112.232 10.4179 112.232 11.4899C112.232 12.5619 113.101 13.4309 114.173 13.4309C115.245 13.4309 116.114 12.5619 116.114 11.4899C116.114 10.4132 115.245 9.54895 114.173 9.54895Z" fill="#3C3C3B"/>
<path d="M135.929 20.7272C135.929 19.2113 135.254 18.4368 133.738 18.4368C132.709 18.4368 131.674 18.6635 131.032 18.9846C131.16 19.3057 131.32 19.7922 131.32 20.4675V29.719H127.419V20.7272C127.419 19.2113 126.711 18.4368 125.228 18.4368C124.293 18.4368 123.585 18.5643 122.81 18.791V29.719H118.942V16.2833C120.94 15.5088 123.292 15.0271 125.422 15.0271C127.098 15.0271 128.515 15.4474 129.389 16.1558C130.678 15.5749 132.161 15.0271 134.258 15.0271C137.677 15.0271 139.835 16.3494 139.835 20.5714V29.7237H135.934V20.7272H135.929Z" fill="#3C3C3B"/>
</g>
<defs>
<linearGradient id="paint0_linear_6862_141839" x1="0.399076" y1="30.0566" x2="33.4326" y2="9.55092" gradientUnits="userSpaceOnUse">
<stop stop-color="#EC6608"/>
<stop offset="0.168" stop-color="#ED6C07"/>
<stop offset="0.3875" stop-color="#EF7A07"/>
<stop offset="0.6356" stop-color="#F39107"/>
<stop offset="0.9028" stop-color="#F9AF06"/>
<stop offset="1" stop-color="#FBBA07"/>
</linearGradient>
<clipPath id="clip0_6862_141839">
<rect width="156.482" height="40" fill="white"/>
</clipPath>
</defs>
</svg>
