<svg width="108" height="28" viewBox="0 0 108 28" fill="none" xmlns="http://www.w3.org/2000/svg">
<path d="M11.4892 21.4383C11.4802 25.2459 10.173 27.8421 6.12067 27.8332H5.41369C1.39896 27.8228 -0.00898218 25.2207 4.30759e-05 21.4131L0.0346399 6.25675C0.0421609 2.44915 1.46063 -0.000391844 5.43926 0.00849404H6.14624C10.2362 0.0188609 11.5328 2.51135 11.5238 6.24491L11.4907 21.4368L11.4892 21.4383ZM7.24732 6.05238C7.25033 4.66174 6.76898 3.96419 5.80177 3.96271C4.72326 3.95975 4.31261 4.61879 4.3096 6.04645L4.275 21.7152C4.272 22.8867 4.60443 23.8019 5.79425 23.8049C6.94648 23.8079 7.20971 22.8926 7.21122 21.7212L7.24581 6.05238H7.24732Z" fill="black"/>
<path d="M19.2852 22.5919L16.1354 22.5845L15.5924 27.8138L11.7597 27.805L15.275 0.0158317L20.3607 0.0261986L23.9798 27.8316L19.8433 27.8227L19.2852 22.5904V22.5919ZM16.6002 18.4392L18.8385 18.4437L17.7223 8.16715L16.5987 18.4392H16.6002Z" fill="black"/>
<path d="M29.2912 27.8148L25.0027 27.806L25.0644 0.00794411L29.3529 0.01683L29.3288 11.1508L32.7313 0.0242349L36.9055 0.0331208L32.8923 12.9517L37.2605 27.8311L32.8592 27.8223L29.3183 15.7463L29.2912 27.8148Z" fill="black"/>
<path d="M41.9977 5.67295L42.0038 3.3019L37.9424 2.89315L37.9484 0.00819778L59.5293 2.65471L59.5203 6.48305L37.9274 9.20805L37.9349 6.09503L41.9977 5.67591V5.67295ZM45.2228 3.65141L45.2198 5.33677L53.2011 4.49705L45.2243 3.65141H45.2228Z" fill="black"/>
<path d="M59.506 12.7978L47.9236 15.5435L59.5 15.5687L59.494 18.5114L37.9071 18.4655L37.9131 15.8368L50.3379 12.7785L37.9207 12.7519L37.9267 9.8388L59.5136 9.88471L59.5075 12.7978H59.506Z" fill="black"/>
<path d="M59.4898 19.271L59.4793 24.213C59.4733 26.9839 57.8758 27.837 55.3217 27.8325L42.1779 27.8044C39.5079 27.7985 37.8864 26.824 37.8924 24.1671L37.9029 19.2251L59.4898 19.271ZM41.0302 22.4595V23.2311C41.0257 24.2308 41.5476 24.4885 42.7089 24.4914L54.8659 24.5181C56.1129 24.5211 56.5491 24.2071 56.5506 23.4074V22.4936L41.0302 22.4595Z" fill="black"/>
<path d="M65.0503 0.0220319L64.9977 23.5222L70.2338 23.5341L70.2248 27.8304L60.7002 27.8097L60.7618 0.013146L65.0503 0.0220319Z" fill="black"/>
<path d="M71.0707 0.00148098L75.3863 0.0103669L75.3382 21.7689C75.3351 22.9508 75.7473 23.7283 76.6844 23.7298C77.6967 23.7327 78.0743 22.9937 78.0773 21.7749L78.1239 0.0162908L82.4395 0.0251767L82.3914 21.5246C82.3824 25.4033 80.8014 27.838 77.0499 27.8306H76.2993C72.5478 27.8202 71.0135 25.4906 71.0226 21.5009L71.0707 0V0.00148098Z" fill="black"/>
<path d="M87.1601 0.0176499L90.8078 14.9326L90.8409 0.0250548L94.7503 0.0339407L94.6886 27.832L91.1974 27.8245L87.1345 11.824L87.0984 27.8157L83.2281 27.8068L83.2898 0.00876402L87.1601 0.0176499Z" fill="black"/>
<path d="M102.998 22.5919L99.8477 22.5845L99.3047 27.8138L95.472 27.805L98.9873 0.0158317L104.073 0.0261986L107.692 27.8316L103.556 27.8227L102.998 22.5904V22.5919ZM100.313 18.4392L102.551 18.4437L101.435 8.16715L100.311 18.4392H100.313Z" fill="black"/>
</svg>
