<svg width="234" height="36" viewBox="0 0 234 36" fill="none" xmlns="http://www.w3.org/2000/svg">
<g clip-path="url(#clip0_2240_26864)">
<path d="M15.3177 20.2981C15.3177 20.2981 17.1381 19.5599 17.1381 18.6037V12.3489H21.3928V9.7041H9.72656V12.3489H13.9663V22.544H17.1387V21.9931C17.1387 20.9672 15.3182 20.2987 15.3182 20.2987" fill="black"/>
<path d="M24.4491 19.6327V22.045H27.0582C26.9625 22.6503 26.7593 23.1071 26.4487 23.415C25.9765 23.8836 25.3372 24.1181 24.5304 24.1181C23.6221 24.1181 22.8961 23.8298 22.3526 23.2533C21.6176 22.4806 21.2501 21.5148 21.2501 20.3559C21.2501 19.7975 21.3517 19.2567 21.5548 18.7333C22.0989 17.3128 23.061 16.6028 24.4411 16.6028C25.116 16.6028 25.6988 16.8044 26.1887 17.2075C26.5296 17.492 26.8285 17.9191 27.0853 18.4882L30.0875 17.2458C29.5812 16.2215 28.9707 15.4466 28.2553 14.9228C27.2544 14.1841 26.0334 13.8145 24.5916 13.8145C22.435 13.8145 20.755 14.5026 19.552 15.8785C18.776 16.7634 18.0772 17.8489 18.0772 18.7355C18.0772 19.622 19.7652 20.2974 19.7652 20.2974C19.7652 20.2974 18.0645 21.0633 18.0645 21.8722C18.0645 22.6811 18.6622 23.6533 19.3201 24.4925C20.5172 26.0178 22.2361 26.7799 24.4762 26.7799C25.852 26.7799 27.0438 26.4523 28.0506 25.7971C29.093 25.1121 29.8407 24.1351 30.2933 22.8662C30.5911 22.0323 30.7401 20.9537 30.7401 19.6316H24.4496L24.4491 19.6327Z" fill="black"/>
<mask id="path-3-inside-1_2240_26864" fill="white">
<path d="M40.1525 0.363771V35.6368H0.363771V0.363771H40.1525ZM40.5163 0H0V36H40.5163V0Z"/>
</mask>
<path d="M40.1525 0.363771H40.8725V-0.356229H40.1525V0.363771ZM40.1525 35.6368V36.3568H40.8725V35.6368H40.1525ZM0.363771 35.6368H-0.356229V36.3568H0.363771V35.6368ZM0.363771 0.363771V-0.356229H-0.356229V0.363771H0.363771ZM40.5163 0H41.2363V-0.72H40.5163V0ZM0 0V-0.72H-0.72V0H0ZM0 36H-0.72V36.72H0V36ZM40.5163 36V36.72H41.2363V36H40.5163ZM40.1525 0.363771H39.4325V35.6368H40.1525H40.8725V0.363771H40.1525ZM40.1525 35.6368V34.9168H0.363771V35.6368V36.3568H40.1525V35.6368ZM0.363771 35.6368H1.08377V0.363771H0.363771H-0.356229V35.6368H0.363771ZM0.363771 0.363771V1.08377H40.1525V0.363771V-0.356229H0.363771V0.363771ZM40.5163 0V-0.72H0V0V0.72H40.5163V0ZM0 0H-0.72V36H0H0.72V0H0ZM0 36V36.72H40.5163V36V35.28H0V36ZM40.5163 36H41.2363V0H40.5163H39.7963V36H40.5163Z" fill="black" mask="url(#path-3-inside-1_2240_26864)"/>
</g>
<path d="M59.9564 13.8882H56.3128V23.4001H54.9681V13.8882H51.3164V12.6001H59.9564V13.8882Z" fill="black"/>
<path d="M77.9579 23.4001H70.3979V12.6001H77.881V13.8738H71.7366V17.3211H77.6825V18.601H71.7366V22.1263H77.9579V23.398V23.4001Z" fill="black"/>
<path d="M97.5779 23.398H96.3433L89.7732 14.9262L89.7649 23.3919H88.3979V12.6001H89.6326L96.2089 21.0739V12.6083H97.5758V23.4001L97.5779 23.398Z" fill="black"/>
<path d="M115.575 23.4001H108.015V12.6001H115.498V13.8738H109.354V17.3211H115.3V18.601H109.354V22.1263H115.575V23.398V23.4001Z" fill="black"/>
<path d="M134.657 23.398H133.495L127.311 14.9262L127.303 23.3919H126.017V12.6001H127.179L133.368 21.0739V12.6083H134.655V23.4001L134.657 23.398Z" fill="black"/>
<path d="M154.876 14.3385L153.881 15.2746C153.133 14.4064 151.998 13.8655 150.693 13.8655C148.316 13.8655 146.517 15.5361 146.517 18.0031C146.517 20.47 148.316 22.1406 150.631 22.1406C152.946 22.1406 154.198 20.8972 154.406 18.8433H151.163V17.6139H155.88C155.888 17.7256 155.896 17.8394 155.896 17.9432C155.896 20.993 153.904 23.4001 150.631 23.4001C147.798 23.4001 145.096 21.4281 145.096 18.0031C145.096 14.8475 147.481 12.6001 150.693 12.6001C152.407 12.6001 153.898 13.2528 154.876 14.3385Z" fill="black"/>
<path d="M170.641 12.6001C173.087 12.6001 174.436 13.6951 174.436 15.6632C174.436 17.6313 172.972 18.7407 170.649 18.7407H170.565L174.383 23.4001H172.696L168.97 18.7407H167.7V23.4001H166.336V12.6001H170.643H170.641ZM167.698 13.8718V17.506H170.61C172.205 17.506 173.019 16.8732 173.019 15.6632C173.019 14.4532 172.184 13.8738 170.61 13.8738H167.698V13.8718Z" fill="black"/>
<path d="M196.215 18.0001C196.215 21.1379 193.83 23.4001 190.544 23.4001C187.258 23.4001 184.875 21.1379 184.875 18.0001C184.875 14.8622 187.26 12.6001 190.544 12.6001C193.828 12.6001 196.215 14.8622 196.215 18.0001ZM186.314 18.0001C186.314 20.4637 188.136 22.1353 190.544 22.1353C192.951 22.1353 194.776 20.4657 194.776 18.0001C194.776 15.5345 192.954 13.8648 190.544 13.8648C188.134 13.8648 186.314 15.5345 186.314 18.0001Z" fill="black"/>
<path d="M215.836 19.0724C215.836 21.9764 213.798 23.4001 211.246 23.4001C208.695 23.4001 206.656 21.9784 206.656 19.0724V12.6001H208.047V18.9731C208.047 21.1562 209.397 22.1141 211.246 22.1141C213.095 22.1141 214.437 21.1562 214.437 18.9731V12.6001H215.834V19.0724H215.836Z" fill="black"/>
<path d="M227.572 19.0797V23.4001H226.276V12.6001H230.193C232.517 12.6001 233.836 13.8184 233.836 15.8399C233.836 17.8614 232.519 19.0797 230.193 19.0797H227.572ZM227.572 13.88V17.7998H230.163C231.686 17.7998 232.49 17.1506 232.49 15.8399C232.49 14.5292 231.688 13.88 230.163 13.88H227.572Z" fill="black"/>
<defs>
<clipPath id="clip0_2240_26864">
<rect width="40.5163" height="36" fill="white"/>
</clipPath>
</defs>
</svg>
